<?xml version="1.0" standalone="no"?>
<!DOCTYPE svg PUBLIC "-//W3C//DTD SVG 20010904//EN"
 "http://www.w3.org/TR/2001/REC-SVG-20010904/DTD/svg10.dtd">
<svg version="1.0" xmlns="http://www.w3.org/2000/svg"
 width="1024.000000pt" height="1024.000000pt" viewBox="0 0 1024.000000 1024.000000"
 preserveAspectRatio="xMidYMid meet">

<g transform="translate(0.000000,1024.000000) scale(0.100000,-0.100000)"
fill="#000000" stroke="none">
<path d="M5030 9273 c-48 -49 -87 -101 -106 -138 -26 -54 -29 -70 -29 -160 0
-117 15 -155 96 -240 l49 -52 0 -184 c0 -287 -13 -829 -19 -829 -3 0 -45 30
-92 68 -48 37 -121 94 -163 127 l-76 59 0 328 c0 388 -3 403 -99 498 -89 89
-203 128 -331 116 -113 -11 -110 -9 -110 -85 1 -229 132 -406 319 -428 l51 -6
0 -230 c0 -211 2 -234 20 -271 16 -32 73 -83 253 -227 l232 -186 3 -419 c2
-410 2 -427 -33 -802 -20 -223 -41 -396 -49 -416 -17 -40 -60 -76 -93 -76 -13
0 -43 10 -66 21 -53 27 -303 197 -422 286 -81 61 -94 75 -128 143 -66 131 -67
142 -67 838 l0 624 36 59 c37 59 64 140 64 189 0 45 -29 125 -60 168 -40 55
-108 104 -199 142 l-73 31 -23 -21 c-13 -12 -38 -51 -55 -88 -37 -74 -50 -170
-31 -238 16 -59 67 -131 123 -172 l48 -36 0 -74 c0 -59 -3 -73 -14 -69 -17 7
-431 329 -472 368 l-30 29 14 59 c43 177 -104 348 -313 363 l-50 3 -17 -60
c-24 -86 -23 -201 3 -269 26 -70 95 -147 162 -180 28 -15 199 -141 380 -282
l327 -255 0 -334 c0 -184 -4 -335 -9 -335 -4 0 -80 47 -167 104 l-159 103 -2
179 c-3 189 -8 214 -50 233 -36 17 -59 13 -89 -12 -20 -18 -27 -33 -28 -65
l-1 -42 -97 0 -98 0 -6 28 c-28 116 -142 207 -274 219 -61 6 -194 -18 -223
-40 -15 -11 -15 -17 -1 -71 34 -130 113 -234 213 -283 55 -27 60 -28 266 -31
145 -3 212 -7 217 -15 4 -7 7 -47 6 -90 -1 -63 2 -82 18 -105 12 -15 124 -95
250 -179 228 -151 229 -153 232 -190 12 -177 40 -282 93 -346 29 -36 279 -249
563 -481 248 -202 261 -222 259 -376 -2 -158 -23 -451 -34 -487 -15 -47 -62
-83 -109 -83 -54 0 -75 21 -290 278 -99 118 -191 223 -203 231 -17 12 -69 17
-237 22 -362 13 -391 17 -473 76 -33 23 -54 49 -78 99 l-34 69 -5 440 c-3 242
-9 446 -13 453 -15 22 -66 43 -92 36 -14 -3 -34 -18 -45 -31 -19 -24 -20 -42
-20 -325 0 -181 -4 -298 -9 -296 -11 3 -248 200 -298 247 l-33 30 0 295 c0
274 -1 299 -21 351 -45 121 -174 217 -314 234 -66 7 -199 0 -211 -12 -12 -12
-16 -165 -5 -217 36 -174 167 -303 323 -317 l58 -6 0 -184 c0 -115 4 -192 11
-205 9 -17 7 -24 -14 -42 -14 -11 -57 -47 -96 -79 l-70 -58 -42 46 c-67 73
-107 90 -215 90 -87 0 -94 -2 -178 -43 -83 -42 -87 -45 -81 -70 19 -79 117
-194 207 -243 58 -31 70 -34 148 -34 77 0 91 3 151 34 36 18 122 80 189 137
68 57 129 104 134 104 6 0 88 -66 181 -146 l170 -145 17 -70 c49 -198 213
-352 403 -378 39 -5 158 -13 265 -16 117 -4 200 -11 208 -17 12 -11 200 -254
481 -624 l123 -162 -4 -146 c-3 -144 -3 -146 -31 -173 -24 -24 -35 -28 -85
-28 -62 1 -97 18 -481 240 l-153 89 -294 2 c-162 2 -299 6 -304 9 -6 4 -40 45
-75 92 l-64 85 29 40 c59 81 61 198 5 294 -23 40 -138 154 -154 154 -5 0 -36
-29 -69 -64 -69 -75 -102 -148 -102 -229 1 -58 19 -119 46 -148 17 -19 16 -19
-54 -19 l-71 0 -54 68 c-29 37 -87 112 -128 167 -74 98 -76 101 -82 172 -11
135 -99 255 -225 304 -76 30 -244 31 -342 2 l-65 -19 2 -49 c6 -118 71 -261
155 -342 77 -75 211 -123 300 -109 l37 6 138 -182 c98 -130 148 -188 173 -200
29 -15 63 -18 192 -18 l156 0 59 -77 c98 -129 79 -123 399 -123 l273 0 138
-103 c365 -273 649 -500 670 -535 21 -35 23 -48 23 -207 0 -93 -5 -277 -10
-408 -9 -212 -12 -246 -35 -312 -42 -127 -254 -535 -337 -649 -38 -52 -123
-125 -173 -147 -28 -12 -100 -22 -235 -33 -725 -60 -1140 -160 -1140 -276 0
-75 149 -139 450 -194 244 -45 530 -75 1005 -107 257 -17 1163 -23 1495 -10
836 33 1413 109 1638 217 117 56 131 106 45 163 -26 18 -91 45 -143 61 -214
67 -491 107 -1065 156 -55 4 -96 14 -129 31 -58 29 -148 112 -184 168 -107
167 -292 533 -322 635 -21 72 -40 408 -40 708 0 179 4 194 62 248 32 30 314
248 617 478 l154 116 272 0 c318 0 300 -5 397 120 l58 75 169 5 c152 4 173 7
198 26 23 17 220 265 275 345 11 16 27 20 93 23 164 8 279 86 355 240 44 87
82 238 65 255 -24 24 -142 45 -245 45 -85 0 -116 -4 -161 -22 -65 -26 -139
-87 -175 -144 -28 -44 -54 -136 -54 -191 0 -34 -16 -59 -127 -207 l-128 -169
-73 -1 -72 0 27 42 c23 33 28 55 31 114 4 62 0 81 -22 129 -24 52 -128 175
-148 175 -17 0 -130 -114 -154 -156 -37 -63 -47 -136 -29 -206 8 -32 26 -75
39 -94 l24 -36 -42 -57 c-23 -32 -53 -72 -67 -90 l-26 -33 -304 -5 -304 -5
-70 -40 c-481 -277 -555 -310 -614 -278 -50 26 -61 65 -61 207 l0 133 182 242
c273 364 407 537 427 547 10 6 109 13 222 16 112 4 234 13 272 20 182 37 342
200 377 384 6 30 11 55 13 57 1 1 81 70 177 152 l174 150 26 -19 c14 -10 70
-57 125 -104 58 -50 131 -101 174 -123 68 -34 82 -37 155 -36 102 0 158 25
236 104 50 49 120 160 120 189 0 6 -39 29 -87 52 -70 35 -99 43 -160 47 -96 6
-150 -14 -224 -85 l-55 -53 -92 80 c-89 78 -91 80 -81 112 5 18 9 110 9 204
l0 171 59 6 c124 11 233 93 292 220 30 65 33 82 36 182 2 61 0 116 -5 123 -5
7 -39 17 -75 23 -85 13 -188 -2 -266 -38 -68 -33 -148 -111 -181 -178 -25 -49
-25 -54 -28 -355 -3 -270 -5 -307 -20 -324 -30 -34 -303 -266 -313 -266 -5 0
-9 118 -9 299 l0 300 -24 27 c-30 35 -87 37 -120 5 -21 -21 -21 -30 -26 -464
l-5 -442 -33 -67 c-38 -77 -85 -121 -154 -144 -51 -17 -276 -33 -465 -34 -149
0 -175 -11 -250 -103 -166 -207 -319 -385 -346 -405 -66 -47 -156 -13 -176 66
-5 20 -17 145 -26 278 -17 255 -13 309 24 370 10 17 173 160 362 319 406 340
429 361 463 430 27 56 56 197 56 275 l0 48 230 151 c126 83 238 164 247 178
13 19 20 55 23 117 l5 91 215 5 c210 5 216 6 271 33 101 49 181 157 215 288
13 49 13 63 3 69 -30 19 -181 43 -237 38 -123 -12 -239 -106 -262 -213 l-6
-30 -96 -3 -95 -3 -7 41 c-8 49 -45 90 -80 90 -13 0 -38 -12 -55 -26 l-31 -26
0 -184 0 -185 -127 -83 c-71 -45 -147 -95 -170 -109 l-43 -27 0 339 0 339 268
208 c147 115 291 228 320 251 29 24 76 55 103 69 69 34 129 92 164 156 38 70
46 198 18 298 l-19 65 -49 -3 c-109 -8 -221 -69 -275 -150 -48 -73 -57 -155
-29 -261 2 -9 -39 -50 -106 -104 -238 -192 -388 -306 -396 -301 -5 3 -9 35 -8
72 l0 67 49 37 c89 68 130 148 130 254 0 76 -26 149 -76 217 -40 55 -37 55
-149 2 -130 -62 -196 -140 -216 -254 -10 -53 -8 -70 10 -129 11 -37 34 -87 51
-110 l30 -42 0 -633 c0 -594 -1 -639 -19 -709 -25 -96 -61 -168 -109 -216 -40
-40 -194 -151 -383 -276 -127 -84 -172 -99 -215 -71 -53 35 -62 77 -99 477
-33 356 -35 392 -35 794 l0 422 235 188 c184 148 240 198 255 230 18 36 20 62
20 271 l0 230 55 6 c184 19 314 197 315 429 l0 67 -57 12 c-87 18 -191 6 -267
-29 -83 -39 -135 -87 -177 -164 l-34 -63 -5 -342 -5 -342 -135 -108 c-142
-114 -180 -143 -191 -143 -3 0 -9 228 -13 506 l-8 505 52 55 c74 78 105 150
105 244 0 66 -4 84 -34 145 -36 73 -172 225 -201 225 -8 0 -49 -35 -90 -77z"/>
</g>
</svg>
